<svg width="48" height="56" viewBox="0 0 48 56" fill="none" xmlns="http://www.w3.org/2000/svg">
<path d="M32.9349 36.6191C30.3259 39.2281 30.652 44.4926 30.652 44.4926H17.4207C17.4207 44.4926 17.7002 39.2281 15.1378 36.6191C12.2959 34.1033 10.4789 30.4693 10.4789 26.4161C10.4789 18.9618 16.5355 12.9053 23.9898 12.9053C31.444 12.9053 37.5006 18.9618 37.5006 26.4161C37.5006 30.4693 35.7302 34.1033 32.9349 36.6191Z" fill="#FFD517"/>
<path d="M31.0247 48.6388C31.0247 49.3376 30.4656 49.8967 29.7668 49.8967H18.2593C17.5605 49.8967 17.0014 49.3376 17.0014 48.6388C17.0014 47.9399 17.5605 47.3809 18.2593 47.3809H29.7202C30.419 47.3809 31.0247 47.9399 31.0247 48.6388Z" fill="#E5E5E5"/>
<path d="M29.3009 53.8565C29.3009 54.5554 28.7418 55.1144 28.043 55.1144H19.9831C19.2843 55.1144 18.7252 54.5554 18.7252 53.8565C18.7252 53.1577 19.2843 52.5986 19.9831 52.5986H28.043C28.7418 52.5986 29.3009 53.1577 29.3009 53.8565Z" fill="#E5E5E5"/>
<path d="M33.6337 37.0849C36.6619 34.3362 38.3857 30.4693 38.3857 26.416C38.3857 18.4959 31.9099 12.02 23.9897 12.02C16.0696 12.02 9.59372 18.4959 9.59372 26.416C9.59372 30.5625 11.4107 34.5225 14.4856 37.2247C16.7684 39.5075 16.5355 44.3528 16.5355 44.3994C16.5355 44.6323 16.6287 44.8653 16.7684 45.0516C16.9548 45.238 17.1877 45.3312 17.4207 45.3312H30.6054C30.8383 45.3312 31.0713 45.238 31.2576 45.0516C31.444 44.8653 31.4906 44.6323 31.4906 44.3994C31.4906 44.3528 31.2576 39.5075 33.5405 37.2247C33.5871 37.1781 33.6337 37.1315 33.6337 37.0849ZM32.3292 35.9202C32.236 35.9668 32.1894 36.06 32.1428 36.1531C30.0929 38.3428 29.7668 41.9302 29.7202 43.6074H18.3059C18.2593 41.8836 17.8866 38.1565 15.6969 35.9668C12.9481 33.5441 11.3641 30.0966 11.3641 26.4626C11.3641 19.4743 17.048 13.837 23.9897 13.837C30.9781 13.837 36.6154 19.5209 36.6154 26.4626C36.6154 30.05 35.0779 33.5441 32.3292 35.9202Z" fill="#210B20"/>
<path d="M23.9897 15.7471C23.5239 15.7471 23.1046 16.1198 23.1046 16.6323C23.1046 17.0982 23.4773 17.5175 23.9897 17.5175C29.2077 17.5175 33.4473 21.7571 33.4473 26.975C33.4473 27.4409 33.82 27.8602 34.3325 27.8602C34.7984 27.8602 35.2177 27.4875 35.2177 26.975C35.2177 20.7787 30.1861 15.7471 23.9897 15.7471Z" fill="#210B20"/>
<path d="M31.9099 48.6387C31.9099 47.4274 30.9315 46.4956 29.7668 46.4956H18.2593C17.048 46.4956 16.1162 47.474 16.1162 48.6387C16.1162 49.85 17.0945 50.7818 18.2593 50.7818H29.7202C30.9315 50.7818 31.9099 49.85 31.9099 48.6387ZM29.7202 49.0114H18.2593C18.0263 49.0114 17.8866 48.8251 17.8866 48.6387C17.8866 48.4058 18.0729 48.266 18.2593 48.266H29.7202C29.9531 48.266 30.0929 48.4523 30.0929 48.6387C30.1395 48.8716 29.9531 49.0114 29.7202 49.0114Z" fill="#210B20"/>
<path d="M28.043 51.7139H19.9831C18.7718 51.7139 17.84 52.6922 17.84 53.857C17.84 55.0683 18.8184 56.0001 19.9831 56.0001H28.043C29.2543 56.0001 30.1861 55.0217 30.1861 53.857C30.1861 52.6922 29.2077 51.7139 28.043 51.7139ZM28.043 54.2297H19.9831C19.7501 54.2297 19.6104 54.0433 19.6104 53.857C19.6104 53.624 19.7967 53.4843 19.9831 53.4843H28.043C28.2759 53.4843 28.4157 53.6706 28.4157 53.857C28.4157 54.0899 28.2759 54.2297 28.043 54.2297Z" fill="#210B20"/>
<path d="M24.8749 6.84859V0.885191C24.8749 0.419301 24.5022 0 23.9897 0C23.5239 0 23.1046 0.372712 23.1046 0.885191V6.89517C23.1046 7.36106 23.4773 7.78037 23.9897 7.78037C24.5022 7.73378 24.8749 7.36106 24.8749 6.84859Z" fill="#210B20"/>
<path d="M38.6653 4.42589C38.246 4.14636 37.7335 4.28613 37.454 4.65884L34.1461 9.64387C33.8666 10.0632 34.0064 10.5756 34.3791 10.8552C34.5189 10.9484 34.7052 10.9949 34.845 10.9949C35.1245 10.9949 35.404 10.8552 35.5904 10.6222L38.8982 5.63721C39.1778 5.2645 39.038 4.70543 38.6653 4.42589Z" fill="#210B20"/>
<path d="M13.4606 10.8085C13.6004 10.8085 13.7867 10.7619 13.9265 10.6687C14.3458 10.3892 14.439 9.87673 14.206 9.45742L10.9914 4.42581C10.7119 4.00651 10.1994 3.91333 9.78009 4.14628C9.36079 4.42581 9.26761 4.93829 9.50056 5.35759L12.7152 10.3892C12.9016 10.6687 13.1811 10.8085 13.4606 10.8085Z" fill="#210B20"/>
<path d="M1.11453 15.0018L6.37909 17.8437C6.51885 17.9369 6.65862 17.9369 6.79839 17.9369C7.12451 17.9369 7.40405 17.7506 7.5904 17.471C7.82335 17.0517 7.68358 16.4927 7.21769 16.2597L1.95313 13.4178C1.53383 13.1848 0.974761 13.3246 0.741816 13.7905C0.55546 14.2564 0.695227 14.7689 1.11453 15.0018Z" fill="#210B20"/>
<path d="M41.1811 17.9834C41.3209 17.9834 41.4606 17.9368 41.6004 17.8902L46.8649 15.0483C47.2843 14.8154 47.4706 14.3029 47.2377 13.837C47.0047 13.4177 46.4922 13.2313 46.0263 13.4643L40.7618 16.3062C40.3425 16.5391 40.1561 17.0516 40.3891 17.5175C40.5288 17.797 40.855 17.9834 41.1811 17.9834Z" fill="#210B20"/>
</svg>
