<svg width="13" height="13" viewBox="0 0 13 13" fill="none" xmlns="http://www.w3.org/2000/svg">
<path d="M6.5 0.76924C3.02018 0.76924 0.185815 3.51437 0.185815 6.88462C0.185815 10.2549 3.02018 13 6.5 13C9.97982 13 12.8142 10.2549 12.8142 6.88462C12.8142 3.51437 9.97982 0.76924 6.5 0.76924ZM6.5 11.641C3.79192 11.641 1.58897 9.50744 1.58897 6.88462C1.58897 4.2618 3.79192 2.12821 6.5 2.12821C9.20808 2.12821 11.411 4.2618 11.411 6.88462C11.411 9.50744 9.20808 11.641 6.5 11.641ZM0.241941 2.46116C-0.0527207 2.21655 -0.0807837 1.78168 0.171784 1.50309C0.64184 0.979881 1.19608 0.511035 1.80646 0.116933C2.12918 -0.0937081 2.56416 -0.0121697 2.78165 0.300394C2.99914 0.612958 2.91495 1.03424 2.59222 1.24488C2.08709 1.57103 1.63106 1.96514 1.23818 2.40001C1.09786 2.55629 0.908439 2.63103 0.711997 2.63103C0.550635 2.63103 0.382256 2.57667 0.248957 2.46116H0.241941ZM10.4078 1.24488C10.0851 1.03424 10.0009 0.612958 10.2184 0.300394C10.4358 -0.0121697 10.8708 -0.0937081 11.1935 0.116933C11.8039 0.511035 12.3511 0.979881 12.8282 1.50309C13.0808 1.78847 13.0527 2.21655 12.7581 2.46116C12.6248 2.57667 12.4634 2.63103 12.295 2.63103C12.0986 2.63103 11.9021 2.5495 11.7688 2.40001C11.376 1.96514 10.9199 1.57783 10.4148 1.24488H10.4078ZM8.35918 7.5777C8.64682 7.82911 8.67489 8.25718 8.4153 8.53577C8.27499 8.68526 8.08556 8.7668 7.88912 8.7668C7.72074 8.7668 7.55938 8.71244 7.42608 8.59693L6.02994 7.39424C5.88261 7.26513 5.79141 7.08167 5.79141 6.88462V4.16667C5.79141 3.79296 6.10712 3.48719 6.49298 3.48719C6.87885 3.48719 7.19456 3.79296 7.19456 4.16667V6.57885L8.35918 7.5777Z" fill="#757575"/>
</svg>
