<svg width="94" height="73" viewBox="0 0 94 73" fill="none" xmlns="http://www.w3.org/2000/svg">
<path fill-rule="evenodd" clip-rule="evenodd" d="M11.6747 7.26929L16.8633 66.324H90.3686C91.1936 66.324 91.9815 65.978 92.5381 65.3685C93.0959 64.7601 93.3717 63.946 93.3 63.1227C92.219 50.8208 88.3922 7.26929 88.3922 7.26929H11.6747Z" fill="#840F29"/>
<path fill-rule="evenodd" clip-rule="evenodd" d="M88.5758 7.26953C88.5758 7.26953 78.9371 59.7812 77.0386 70.1274C76.8518 71.1456 75.9637 71.8855 74.9285 71.8855C64.795 71.8855 14.5645 71.8855 2.57336 71.8855C1.93639 71.8855 1.33284 71.6034 0.92468 71.1135C0.51776 70.6247 0.348293 69.9789 0.463319 69.3528C2.65624 57.4068 11.8583 7.26953 11.8583 7.26953H88.5758Z" fill="#D5133E"/>
<path fill-rule="evenodd" clip-rule="evenodd" d="M32.3688 18.6934C32.9047 18.6934 33.4129 18.9317 33.7559 19.3435C34.0989 19.7555 34.2415 20.2985 34.1446 20.8257C33.6968 23.265 32.9756 27.1955 32.5853 29.3216C32.4279 30.179 31.6809 30.8015 30.8095 30.8015C28.2536 30.8015 23.0534 30.8015 20.1051 30.8015C19.5693 30.8015 19.061 30.5634 18.718 30.1514C18.375 29.7396 18.2325 29.1966 18.3294 28.6692C18.7769 26.2299 19.4984 22.2995 19.8887 20.1735C20.046 19.3161 20.793 18.6934 21.6645 18.6934C24.2204 18.6934 29.4205 18.6934 32.3688 18.6934Z" fill="#ED2F59"/>
<path fill-rule="evenodd" clip-rule="evenodd" d="M29.2554 35.0063C29.7913 35.0063 30.2995 35.2447 30.6425 35.6565C30.9855 36.0685 31.1281 36.6114 31.0312 37.1387C30.5834 39.578 29.8622 43.5085 29.4719 45.6346C29.3145 46.492 28.5675 47.1145 27.6961 47.1145C25.1402 47.1145 19.94 47.1145 16.9917 47.1145C16.4559 47.1145 15.9476 46.8764 15.6046 46.4644C15.2616 46.0526 15.1191 45.5096 15.216 44.9821C15.6635 42.5429 16.385 38.6125 16.7753 36.4865C16.9326 35.6291 17.6796 35.0063 18.5511 35.0063C21.107 35.0063 26.3071 35.0063 29.2554 35.0063Z" fill="#ED2F59"/>
<path fill-rule="evenodd" clip-rule="evenodd" d="M26.2904 51.0229C26.8262 51.0229 27.3345 51.2613 27.6775 51.6731C28.0205 52.0851 28.1631 52.628 28.0662 53.1553C27.6184 55.5946 26.8971 59.5251 26.5069 61.6512C26.3495 62.5086 25.6025 63.1311 24.7311 63.1311C22.1751 63.1311 16.975 63.1311 14.0267 63.1311C13.4909 63.1311 12.9826 62.893 12.6396 62.481C12.2966 62.0692 12.154 61.5262 12.2509 60.9987C12.6985 58.5595 13.42 54.6291 13.8102 52.5031C13.9676 51.6457 14.7146 51.0229 15.586 51.0229C18.142 51.0229 23.3421 51.0229 26.2904 51.0229Z" fill="#ED2F59"/>
<path fill-rule="evenodd" clip-rule="evenodd" d="M52.0856 18.6934C52.6215 18.6934 53.1297 18.9317 53.4727 19.3435C53.8157 19.7555 53.9583 20.2985 53.8614 20.8257C53.4136 23.265 52.6924 27.1955 52.3021 29.3216C52.1447 30.179 51.3977 30.8015 50.5263 30.8015C47.9704 30.8015 42.7702 30.8015 39.8219 30.8015C39.2861 30.8015 38.7778 30.5634 38.4348 30.1514C38.0918 29.7396 37.9493 29.1966 38.0462 28.6692C38.4937 26.2299 39.2152 22.2995 39.6055 20.1735C39.7628 19.3161 40.5098 18.6934 41.3813 18.6934C43.9372 18.6934 49.1373 18.6934 52.0856 18.6934Z" fill="#ED2F59"/>
<path fill-rule="evenodd" clip-rule="evenodd" d="M48.9723 35.0063C49.5081 35.0063 50.0164 35.2447 50.3594 35.6565C50.7024 36.0685 50.8449 36.6114 50.7481 37.1387C50.3003 39.578 49.579 43.5085 49.1887 45.6346C49.0314 46.492 48.2844 47.1145 47.4129 47.1145C44.857 47.1145 39.6569 47.1145 36.7086 47.1145C36.1728 47.1145 35.6645 46.8764 35.3215 46.4644C34.9785 46.0526 34.8359 45.5096 34.9328 44.9821C35.3803 42.5429 36.1018 38.6125 36.4921 36.4865C36.6495 35.6291 37.3965 35.0063 38.2679 35.0063C40.8238 35.0063 46.024 35.0063 48.9723 35.0063Z" fill="#ED2F59"/>
<path fill-rule="evenodd" clip-rule="evenodd" d="M46.0072 51.0229C46.543 51.0229 47.0513 51.2613 47.3943 51.6731C47.7373 52.0851 47.8798 52.628 47.783 53.1553C47.3352 55.5946 46.6139 59.5251 46.2236 61.6512C46.0663 62.5086 45.3193 63.1311 44.4479 63.1311C41.8919 63.1311 36.6918 63.1311 33.7435 63.1311C33.2077 63.1311 32.6994 62.893 32.3564 62.481C32.0134 62.0692 31.8708 61.5262 31.9677 60.9987C32.4153 58.5595 33.1367 54.6291 33.527 52.5031C33.6844 51.6457 34.4314 51.0229 35.3028 51.0229C37.8587 51.0229 43.0589 51.0229 46.0072 51.0229Z" fill="#ED2F59"/>
<path fill-rule="evenodd" clip-rule="evenodd" d="M71.8025 18.6934C72.3383 18.6934 72.8466 18.9317 73.1896 19.3435C73.5326 19.7555 73.6751 20.2985 73.5783 20.8257C73.1305 23.265 72.4092 27.1955 72.0189 29.3216C71.8616 30.179 71.1146 30.8015 70.2431 30.8015C67.6872 30.8015 62.4871 30.8015 59.5388 30.8015C59.003 30.8015 58.4947 30.5634 58.1517 30.1514C57.8087 29.7396 57.6661 29.1966 57.763 28.6692C58.2105 26.2299 58.932 22.2995 59.3223 20.1735C59.4797 19.3161 60.2267 18.6934 61.0981 18.6934C63.654 18.6934 68.8542 18.6934 71.8025 18.6934Z" fill="#ED2F59"/>
<path fill-rule="evenodd" clip-rule="evenodd" d="M68.6891 35.0063C69.2249 35.0063 69.7332 35.2447 70.0762 35.6565C70.4192 36.0685 70.5617 36.6114 70.4649 37.1387C70.0171 39.578 69.2958 43.5085 68.9055 45.6346C68.7482 46.492 68.0012 47.1145 67.1297 47.1145C64.5738 47.1145 59.3737 47.1145 56.4254 47.1145C55.8896 47.1145 55.3813 46.8764 55.0383 46.4644C54.6953 46.0526 54.5527 45.5096 54.6496 44.9821C55.0971 42.5429 55.8186 38.6125 56.2089 36.4865C56.3663 35.6291 57.1133 35.0063 57.9847 35.0063C60.5406 35.0063 65.7408 35.0063 68.6891 35.0063Z" fill="#F6FAF0"/>
<path fill-rule="evenodd" clip-rule="evenodd" d="M65.724 51.0229C66.2598 51.0229 66.7681 51.2613 67.1111 51.6731C67.4541 52.0851 67.5966 52.628 67.4998 53.1553C67.052 55.5946 66.3307 59.5251 65.9404 61.6512C65.7831 62.5086 65.0361 63.1311 64.1647 63.1311C61.6087 63.1311 56.4086 63.1311 53.4603 63.1311C52.9245 63.1311 52.4162 62.893 52.0732 62.481C51.7302 62.0692 51.5876 61.5262 51.6845 60.9987C52.1321 58.5595 52.8535 54.6291 53.2438 52.5031C53.4012 51.6457 54.1482 51.0229 55.0196 51.0229C57.5755 51.0229 62.7757 51.0229 65.724 51.0229Z" fill="#ED2F59"/>
<path d="M29.7925 13.3016C26.4642 13.3016 23.7617 10.5994 23.7617 7.26982C23.7617 3.94029 26.4642 1.23682 29.7925 1.23682C33.1196 1.23682 35.8221 3.94029 35.8221 7.26982" stroke="#840F29" stroke-width="2" stroke-miterlimit="1.5" stroke-linecap="round" stroke-linejoin="round"/>
<path d="M64.8292 13.3016C61.5009 13.3016 58.7984 10.5994 58.7984 7.26982C58.7984 3.94029 61.5009 1.23682 64.8292 1.23682C68.1563 1.23682 70.8588 3.94029 70.8588 7.26982" stroke="#840F29" stroke-width="2" stroke-miterlimit="1.5" stroke-linecap="round" stroke-linejoin="round"/>
</svg>
