<svg width="103" height="79" viewBox="0 0 103 79" fill="none" xmlns="http://www.w3.org/2000/svg">
<path d="M95.7614 49.9465V21.6792L89.7257 23.8128V49.9465C87.9077 50.987 86.6827 52.9365 86.6827 55.1722C86.6827 57.4076 87.9077 59.3574 89.7257 60.3979V75.1454C89.7257 76.8027 91.0769 78.1463 92.7436 78.1463C94.4102 78.1463 95.7614 76.8027 95.7614 75.1454V60.3981C97.5794 59.3578 98.8044 57.4079 98.8044 55.1724C98.8044 52.9367 97.5796 50.987 95.7614 49.9465Z" fill="#D5133E"/>
<path d="M51.5049 35.2004C50.469 35.2004 49.4487 35.0254 48.4724 34.6803L21.2144 25.0444V49.2049C21.2144 52.4356 24.6039 55.1678 31.2886 57.3253C37.1153 59.2058 44.295 60.2415 51.5049 60.2415C58.7148 60.2415 65.8943 59.2058 71.7212 57.3253C78.406 55.1678 81.7954 52.4356 81.7954 49.2049V25.0444L54.5377 34.6803C53.5611 35.0254 52.5409 35.2004 51.5049 35.2004Z" fill="#840F29"/>
<path d="M100.996 17.1822L52.509 0.17105C51.8594 -0.0570167 51.1506 -0.0570167 50.5009 0.17105L2.01392 17.1822C0.808388 17.6052 0.00161194 18.7375 2.41168e-06 20.0087C-0.00160712 21.2798 0.802553 22.414 2.00708 22.8397L50.4941 39.9801C50.821 40.0957 51.1631 40.1535 51.5049 40.1535C51.8469 40.1535 52.1887 40.0957 52.5157 39.9801L101.003 22.8397C102.207 22.414 103.011 21.2798 103.01 20.0087C103.008 18.7375 102.201 17.6052 100.996 17.1822Z" fill="#D5133E"/>
</svg>
