<svg width="81" height="87" viewBox="0 0 81 87" fill="none" xmlns="http://www.w3.org/2000/svg">
<path fill-rule="evenodd" clip-rule="evenodd" d="M57.5335 3.34911L74.0934 70.6892C74.4122 71.9854 73.6179 73.2957 72.3198 73.6126L20.0672 86.3688C18.769 86.6857 17.4568 85.8896 17.1381 84.5935L0.578112 17.2534C0.259377 15.9572 1.05363 14.6469 2.35174 14.33L54.6044 1.57383C55.9025 1.25692 57.2148 2.05299 57.5335 3.34911Z" fill="#840F29"/>
<path fill-rule="evenodd" clip-rule="evenodd" d="M80.9493 14.6172V78.6231C80.9493 79.9982 79.8313 81.1136 78.4535 81.1136H22.9915C21.6136 81.1136 20.4957 79.9982 20.4957 78.6231V3.99691C20.4957 2.62174 21.6136 1.50464 22.9915 1.50464H67.8073C75.0614 1.50464 80.9493 7.3794 80.9493 14.6172Z" fill="#D5133E"/>
<path fill-rule="evenodd" clip-rule="evenodd" d="M80.9494 14.7099V19.1299C80.9494 19.4189 80.7143 19.6535 80.4245 19.6535H70.5636C68.6896 19.6535 67.1681 18.1357 67.1681 16.2663V2.05023C67.1681 1.74937 67.4127 1.50537 67.7139 1.50537C75.0187 1.50537 80.9494 7.4222 80.9494 14.7099Z" fill="#ED2F59"/>
<path fill-rule="evenodd" clip-rule="evenodd" d="M56.1742 14.8568V20.3678C56.1742 20.8579 55.7744 21.2563 55.2834 21.2563H30.3213C29.8302 21.2563 29.4305 20.8579 29.4305 20.3678V14.8568C29.4305 14.3649 29.8302 13.9683 30.3213 13.9683H55.2834C55.7744 13.9683 56.1742 14.3649 56.1742 14.8568Z" fill="#ED2F59"/>
<path fill-rule="evenodd" clip-rule="evenodd" d="M72.0153 27.8437V30.8432C72.0153 31.1099 71.7988 31.3267 71.5306 31.3267H29.9157C29.6507 31.3267 29.431 31.1099 29.431 30.8432V27.8437C29.431 27.576 29.6507 27.3601 29.9157 27.3601H71.5306C71.7988 27.3601 72.0153 27.576 72.0153 27.8437Z" fill="#ED2F59"/>
<path fill-rule="evenodd" clip-rule="evenodd" d="M72.0153 35.6025V38.602C72.0153 38.8687 71.7988 39.0855 71.5306 39.0855H29.9157C29.6507 39.0855 29.431 38.8687 29.431 38.602V35.6025C29.431 35.3348 29.6507 35.1189 29.9157 35.1189H71.5306C71.7988 35.1189 72.0153 35.3348 72.0153 35.6025Z" fill="#ED2F59"/>
</svg>
