<svg width="86" height="85" viewBox="0 0 86 85" fill="none" xmlns="http://www.w3.org/2000/svg">
<path d="M69.752 24.7356H17.0699V69.6301H69.752V24.7356Z" fill="#840F29"/>
<path d="M21.7175 26.5845H13.2007V67.5128H21.7175V26.5845Z" fill="#D5133E"/>
<path d="M39.0246 26.5845H30.5078V67.5128H39.0246V26.5845Z" fill="#D5133E"/>
<path d="M56.3319 26.5845H47.8151V67.5128H56.3319V26.5845Z" fill="#D5133E"/>
<path d="M73.6391 26.5845H65.1223V67.5128H73.6391V26.5845Z" fill="#D5133E"/>
<path fill-rule="evenodd" clip-rule="evenodd" d="M76.6788 65.2466L78.4915 74.0154H8.34625L10.157 65.2466H76.6788Z" fill="#ED2F59"/>
<path fill-rule="evenodd" clip-rule="evenodd" d="M82.1169 21.0263L80.3042 29.7951H6.53353L4.72081 21.0263L43.4189 0L82.1169 21.0263ZM43.4189 10.6644C40.0757 10.6644 37.3634 13.3718 37.3634 16.706C37.3634 20.0406 40.0757 22.748 43.4189 22.748C46.7602 22.748 49.4724 20.0406 49.4724 16.706C49.4724 13.3718 46.7602 10.6644 43.4189 10.6644Z" fill="#ED2F59"/>
<path fill-rule="evenodd" clip-rule="evenodd" d="M83.5355 74.0154L85.7515 84.7351H0.000198364L2.21381 74.0154H83.5355Z" fill="#D5133E"/>
</svg>
