<svg width="68" height="68" viewBox="0 0 68 68" fill="none" xmlns="http://www.w3.org/2000/svg">
<circle cx="34" cy="34" r="34" fill="#4EAF50"/>
<path fill-rule="evenodd" clip-rule="evenodd" d="M46.4684 49.9996C30.7514 49.9816 18 37.2183 18 21.5C18 21.038 18.2115 20.603 18.576 20.318C18.9405 20.0345 19.4145 19.934 19.863 20.045C19.863 20.045 22.788 20.777 24.5535 21.218C25.8975 21.554 26.946 22.6025 27.282 23.9464C27.5385 24.9739 27.894 26.3929 28.146 27.4009C28.4654 28.6789 28.0905 30.0304 27.159 30.9619L24.2175 33.9033C26.529 38.0418 29.9579 41.4722 34.0964 43.7822L37.0379 40.8407C37.9694 39.9092 39.3209 39.5342 40.5989 39.8537C41.6069 40.1057 43.0259 40.4612 44.0534 40.7177C45.3974 41.0537 46.4459 42.1022 46.7819 43.4462C47.2229 45.2117 47.9549 48.1366 47.9549 48.1366C48.1559 48.9391 47.6669 49.7551 46.8629 49.9561C46.7309 49.9891 46.5974 50.0026 46.4684 49.9996ZM40.4999 24.4999V21.5C40.4999 20.672 41.1719 20 41.9999 20C42.8264 20 43.4999 20.672 43.4999 21.5V24.4999H46.4999C47.3264 24.4999 47.9999 25.1719 47.9999 25.9999C47.9999 26.8279 47.3264 27.4999 46.4999 27.4999H43.4999V30.4999C43.4999 31.3278 42.8264 31.9998 41.9999 31.9998C41.1719 31.9998 40.4999 31.3278 40.4999 30.4999V27.4999H37.4999C36.6719 27.4999 35.9999 26.8279 35.9999 25.9999C35.9999 25.1719 36.6719 24.4999 37.4999 24.4999H40.4999Z" fill="white"/>
</svg>
