<svg width="68" height="68" viewBox="0 0 68 68" fill="none" xmlns="http://www.w3.org/2000/svg">
<circle cx="34" cy="34" r="34" fill="#239C8F"/>
<path d="M33.5 18C24.9399 18 18 24.9399 18 33.5C18 42.0601 24.9399 49 33.5 49C42.0601 49 49 42.0601 49 33.5C49 24.9399 42.0601 18 33.5 18ZM37.9523 39.6107C37.2761 40.4335 36.3959 40.9885 35.3689 41.2691C34.9224 41.3903 34.7183 41.6263 34.7438 42.092C34.763 42.5512 34.7438 43.0041 34.7374 43.4634C34.7374 43.8716 34.527 44.0885 34.1251 44.1012C33.8636 44.1076 33.6021 44.114 33.3405 44.114C33.1109 44.114 32.8813 44.114 32.6516 44.1076C32.2179 44.1012 32.0138 43.8525 32.0138 43.4315C32.0074 43.0998 32.0074 42.7617 32.0074 42.43C32.001 41.6901 31.9755 41.6646 31.2675 41.5498C30.3617 41.4031 29.4687 41.199 28.6395 40.7971C27.9889 40.4782 27.9187 40.3187 28.1037 39.6298C28.244 39.1195 28.3844 38.6093 28.5438 38.1054C28.6586 37.7354 28.7671 37.5695 28.9648 37.5695C29.0796 37.5695 29.2263 37.627 29.4241 37.729C30.3426 38.2074 31.3185 38.4753 32.3455 38.6029C32.5177 38.622 32.6899 38.6348 32.8621 38.6348C33.3405 38.6348 33.8062 38.5455 34.2591 38.3477C35.4008 37.8502 35.5794 36.5298 34.6163 35.7389C34.2909 35.471 33.9146 35.2733 33.5255 35.101C32.5241 34.6609 31.4844 34.3292 30.5403 33.7615C29.0095 32.843 28.0399 31.5864 28.1547 29.7239C28.2823 27.6189 29.4751 26.3049 31.4078 25.6033C32.2051 25.3163 32.2115 25.3226 32.2115 24.4934C32.2115 24.2128 32.2051 23.9321 32.2179 23.6451C32.237 23.02 32.3391 22.9115 32.9642 22.8924C33.0344 22.8924 33.1109 22.8924 33.1811 22.8924C33.3023 22.8924 33.4235 22.8924 33.5447 22.8924C33.5957 22.8924 33.6467 22.8924 33.6914 22.8924C34.8778 22.8924 34.8778 22.9434 34.8842 24.2255C34.8905 25.1695 34.8905 25.1695 35.8282 25.3163C36.549 25.4311 37.2315 25.6416 37.8949 25.935C38.2584 26.0944 38.3988 26.3496 38.284 26.7387C38.1181 27.3128 37.9586 27.8932 37.78 28.4609C37.6652 28.8053 37.5568 28.9648 37.3527 28.9648C37.2379 28.9648 37.0975 28.9202 36.9189 28.8309C36.0004 28.3844 35.0372 28.1675 34.0294 28.1675C33.9019 28.1675 33.7679 28.1739 33.6403 28.1802C33.3405 28.1994 33.0471 28.2377 32.7665 28.3588C31.7714 28.7926 31.6119 29.8897 32.4603 30.5658C32.8877 30.9103 33.3788 31.1527 33.8827 31.3632C34.763 31.7267 35.6432 32.0776 36.4788 32.5368C39.1068 34.0039 39.8212 37.3399 37.9523 39.6107Z" fill="white"/>
</svg>
