<svg width="49" height="43" viewBox="0 0 49 43" fill="none" xmlns="http://www.w3.org/2000/svg">
<path d="M16.9614 19.1297H10.3652C9.57986 19.1297 8.91223 18.8508 8.3625 18.2928C7.81307 17.7348 7.53799 17.0574 7.53799 16.26V15.304C7.53799 13.1916 8.27431 11.3884 9.74684 9.89375C11.2193 8.39959 12.9961 7.6522 15.0769 7.6522H16.9614C17.4717 7.6522 17.9133 7.46281 18.2864 7.08436C18.6594 6.70569 18.8459 6.2575 18.8459 5.73939V1.91313C18.8459 1.39512 18.6593 0.946514 18.2864 0.567846C17.9134 0.189701 17.4718 0 16.9614 0H15.0769C13.0351 0 11.087 0.403899 9.23166 1.21055C7.37648 2.01772 5.77182 3.10881 4.41708 4.48393C3.06244 5.85842 1.98782 7.48731 1.19271 9.3706C0.397605 11.2537 0 13.2315 0 15.3039V36.3459C0 37.9409 0.549427 39.2951 1.6488 40.4115C2.74827 41.5272 4.08352 42.085 5.65393 42.085H16.9621C18.5324 42.085 19.8673 41.5272 20.9668 40.4115C22.066 39.2951 22.6157 37.9409 22.6157 36.3459V24.8687C22.6157 23.274 22.066 21.9197 20.9661 20.8033C19.8671 19.6877 18.5317 19.1297 16.9614 19.1297Z" fill="#484848"/>
<path d="M47.3519 20.8033C46.2528 19.6877 44.9179 19.1297 43.3472 19.1297H36.7511C35.9662 19.1297 35.2979 18.8508 34.7491 18.2928C34.1992 17.7348 33.9246 17.0574 33.9246 16.26V15.304C33.9246 13.1916 34.6609 11.3884 36.1327 9.89375C37.6047 8.39959 39.3813 7.6522 41.4632 7.6522H43.3473C43.8577 7.6522 44.2996 7.46281 44.6724 7.08436C45.0451 6.70569 45.2323 6.2575 45.2323 5.73939V1.91313C45.2323 1.39512 45.0452 0.946514 44.6724 0.567846C44.2997 0.189701 43.8578 0 43.3473 0H41.4632C39.4202 0 37.4726 0.403899 35.6167 1.21055C33.7619 2.01772 32.1577 3.10881 30.803 4.48393C29.4482 5.85842 28.3731 7.48731 27.5783 9.3706C26.7834 11.2537 26.3853 13.2315 26.3853 15.3039V36.3459C26.3853 37.9409 26.9352 39.2951 28.0343 40.4115C29.1335 41.5272 30.4684 42.085 32.039 42.085H43.3466C44.9173 42.085 46.2521 41.5272 47.3512 40.4115C48.4511 39.2951 48.9999 37.9409 48.9999 36.3459V24.8687C49 23.2739 48.4511 21.9197 47.3519 20.8033Z" fill="#484848"/>
</svg>
