<svg width="68" height="68" viewBox="0 0 68 68" fill="none" xmlns="http://www.w3.org/2000/svg">
<circle cx="34" cy="34" r="34" fill="#46A6F5"/>
<path d="M48.7273 23.247L30.0564 42.09L23.1182 35.094L25.4255 32.7675L30.0564 37.437L46.42 20.937L48.7273 23.247ZM32.3636 47.7C25.1473 47.7 19.2727 41.7765 19.2727 34.5C19.2727 27.2235 25.1473 21.3 32.3636 21.3C34.9327 21.3 37.3382 22.059 39.3673 23.3625L41.74 20.97C39.0727 19.1055 35.8491 18 32.3636 18C23.3309 18 16 25.392 16 34.5C16 43.608 23.3309 51 32.3636 51C35.1945 51 37.8618 50.274 40.1855 48.987L37.7309 46.512C36.0945 47.271 34.2782 47.7 32.3636 47.7ZM43.8182 39.45H38.9091V42.75H43.8182V47.7H47.0909V42.75H52V39.45H47.0909V34.5H43.8182V39.45Z" fill="white"/>
</svg>
