<svg width="74" height="74" viewBox="0 0 74 74" fill="none" xmlns="http://www.w3.org/2000/svg">
<g clip-path="url(#clip0_36_33)">
<path d="M10.3542 14.1194V69.728H63.6458C68.7644 69.728 72.9139 65.5785 72.9139 60.4599V14.1194H10.3542Z" fill="#FEEFCD"/>
<path d="M54.3777 60.4599H1.08612C1.08612 65.5785 5.23562 69.728 10.3542 69.728H63.6458C58.5272 69.728 54.3777 65.5785 54.3777 60.4599Z" fill="#FDE09B"/>
<path d="M28.3112 15.8572C31.5103 15.8572 34.1037 13.2637 34.1037 10.0646C34.1037 6.86545 31.5103 4.27203 28.3112 4.27203C25.112 4.27203 22.5186 6.86545 22.5186 10.0646C22.5186 13.2637 25.112 15.8572 28.3112 15.8572Z" fill="#7D55CC"/>
<path d="M31.2075 12.9609C28.0084 12.9609 25.4149 10.3674 25.4149 7.16834C25.4149 6.31857 25.5994 5.51239 25.9281 4.78528C23.9181 5.69413 22.5186 7.7153 22.5186 10.0646C22.5186 13.2637 25.1121 15.8572 28.3112 15.8572C30.6605 15.8572 32.6817 14.4577 33.5905 12.4477C32.8634 12.7764 32.0572 12.9609 31.2075 12.9609Z" fill="#5C2BBF"/>
<path d="M72.9139 13.0333H64.7917C64.1919 13.0333 63.7056 13.5196 63.7056 14.1194C63.7056 14.7192 64.1919 15.2055 64.7917 15.2055H71.8278V60.4599C71.8278 64.9714 68.1573 68.6419 63.6458 68.6419C59.1343 68.6419 55.4638 64.9714 55.4638 60.4599C55.4638 59.8601 54.9775 59.3738 54.3777 59.3738H28.2986C27.6987 59.3738 27.2125 59.8601 27.2125 60.4599C27.2125 61.0597 27.6987 61.546 28.2986 61.546H53.3482C53.6494 64.4243 55.1349 66.9552 57.3071 68.6419H10.3542C6.21079 68.6419 2.77681 65.546 2.24404 61.546H23.0978C23.6977 61.546 24.184 61.0597 24.184 60.4599C24.184 59.8601 23.6977 59.3738 23.0978 59.3738H11.4403V15.2055H23.7478C24.9631 16.2855 26.5614 16.9432 28.3112 16.9432C29.8165 16.9432 31.2093 16.456 32.3432 15.6325L38.5491 21.8384C38.7611 22.0504 39.0391 22.1566 39.317 22.1566C39.5949 22.1566 39.873 22.0506 40.085 21.8384C40.5091 21.4142 40.5091 20.7265 40.085 20.3025L34.988 15.2055H59.6916C60.2915 15.2055 60.7778 14.7192 60.7778 14.1194C60.7778 13.5196 60.2915 13.0333 59.6916 13.0333H34.5154C34.9474 12.134 35.1898 11.1271 35.1898 10.0646C35.1898 6.27176 32.104 3.18591 28.3112 3.18591C24.5183 3.18591 21.4325 6.27176 21.4325 10.0646C21.4325 11.1271 21.6749 12.134 22.1069 13.0333H10.3542C9.75439 13.0333 9.2681 13.5196 9.2681 14.1194V59.3738H1.08611C0.486286 59.3738 0 59.8601 0 60.4599C0 66.1692 4.64491 70.8141 10.3542 70.8141H63.6458C69.3551 70.8141 74 66.1692 74 60.4599V14.1194C74 13.5196 73.5137 13.0333 72.9139 13.0333ZM28.3112 5.35812C30.9062 5.35812 33.0176 7.46951 33.0176 10.0646C33.0176 11.2512 32.5752 12.3357 31.8481 13.1645C31.8346 13.1719 31.822 13.1804 31.8088 13.1884C31.7935 13.1975 31.778 13.2062 31.7631 13.2162C31.7464 13.2273 31.7308 13.2396 31.7147 13.2516C31.7024 13.2609 31.6897 13.2695 31.6776 13.2793C31.6222 13.3248 31.5714 13.3756 31.5259 13.4311C31.5157 13.4435 31.5068 13.4566 31.4972 13.4693C31.4855 13.4848 31.4735 13.5 31.4626 13.5162C31.4522 13.5317 31.4432 13.5479 31.4336 13.5639C31.4261 13.5765 31.4179 13.5885 31.4109 13.6014C30.5823 14.3288 29.4978 14.771 28.3112 14.771C25.7161 14.771 23.6047 12.6596 23.6047 10.0646C23.6047 7.46951 25.7161 5.35812 28.3112 5.35812Z" fill="black"/>
<path d="M28.818 32.6556C28.818 32.0557 28.3317 31.5695 27.7319 31.5695H20.7808C20.181 31.5695 19.6947 32.0557 19.6947 32.6556C19.6947 33.2554 20.181 33.7417 20.7808 33.7417H23.1739C23.1723 33.7657 23.1702 33.7896 23.1702 33.8141V41.9237C23.1702 42.5235 23.6565 43.0098 24.2563 43.0098C24.8562 43.0098 25.3425 42.5235 25.3425 41.9237V33.8141C25.3425 33.7896 25.3404 33.7657 25.3388 33.7417H27.7319C28.3317 33.7417 28.818 33.2554 28.818 32.6556Z" fill="black"/>
<path d="M33.5245 43.0098C36.0397 43.0098 38.0861 40.4437 38.0861 37.2896C38.0861 34.1356 36.0397 31.5695 33.5245 31.5695C31.0092 31.5695 28.9628 34.1356 28.9628 37.2896C28.9628 40.4437 31.0092 43.0098 33.5245 43.0098ZM33.5245 33.7417C34.8197 33.7417 35.9139 35.3665 35.9139 37.2896C35.9139 39.2127 34.8197 40.8376 33.5245 40.8376C32.2293 40.8376 31.135 39.2127 31.135 37.2896C31.135 35.3665 32.2293 33.7417 33.5245 33.7417Z" fill="black"/>
<path d="M54.4501 37.2896C54.4501 40.4437 56.4965 43.0098 59.0117 43.0098C61.527 43.0098 63.5734 40.4437 63.5734 37.2896C63.5734 34.1356 61.527 31.5695 59.0117 31.5695C56.4965 31.5695 54.4501 34.1356 54.4501 37.2896ZM61.4012 37.2896C61.4012 39.2127 60.307 40.8376 59.0117 40.8376C57.7165 40.8376 56.6223 39.2127 56.6223 37.2896C56.6223 35.3665 57.7165 33.7417 59.0117 33.7417C60.307 33.7417 61.4012 35.3665 61.4012 37.2896Z" fill="black"/>
<path d="M51.9882 37.2896C51.9882 31.7987 44.4505 30.4792 44.1296 30.4257C43.8148 30.3733 43.4926 30.4619 43.249 30.6683C43.0054 30.8746 42.865 31.1777 42.865 31.497V41.9237C42.865 42.5235 43.3512 43.0098 43.9511 43.0098C46.7309 43.0098 51.9882 41.8143 51.9882 37.2896ZM45.0372 32.8818C46.8098 33.4144 49.816 34.6996 49.816 37.2896C49.816 39.8325 46.7327 40.5533 45.0372 40.7572V32.8818Z" fill="black"/>
<path d="M55.4638 47.7162C55.4638 47.1164 54.9775 46.6301 54.3777 46.6301H31.2074C30.6076 46.6301 30.1213 47.1164 30.1213 47.7162C30.1213 48.3161 30.6076 48.8023 31.2074 48.8023H54.3777C54.9775 48.8023 55.4638 48.3161 55.4638 47.7162Z" fill="black"/>
<path d="M33.5245 52.4227C32.9246 52.4227 32.4384 52.909 32.4384 53.5088C32.4384 54.1087 32.9246 54.5949 33.5245 54.5949H48.5851C49.1849 54.5949 49.6712 54.1087 49.6712 53.5088C49.6712 52.909 49.1849 52.4227 48.5851 52.4227H33.5245Z" fill="black"/>
</g>
<defs>
<clipPath id="clip0_36_33">
<rect width="74" height="74" fill="white"/>
</clipPath>
</defs>
</svg>
