<svg width="26" height="26" viewBox="0 0 26 26" fill="none" xmlns="http://www.w3.org/2000/svg">
<path d="M19.5078 0C20.3982 0 21.237 0.170848 22.0239 0.512545C22.8108 0.854241 23.4994 1.32019 24.0896 1.91039C24.6798 2.5006 25.1458 3.18917 25.4875 3.97611C25.8292 4.76304 26 5.60175 26 6.49223V19.4767C26 20.3672 25.8292 21.2111 25.4875 22.0084C25.1458 22.8057 24.6798 23.4994 24.0896 24.0896C23.4994 24.6798 22.8108 25.1458 22.0239 25.4875C21.237 25.8292 20.3982 26 19.5078 26H6.49223C5.60175 26 4.76304 25.8292 3.97611 25.4875C3.18917 25.1458 2.5006 24.6798 1.91039 24.0896C1.32019 23.4994 0.854241 22.8057 0.512545 22.0084C0.170848 21.2111 0 20.3672 0 19.4767V6.49223C0 5.60175 0.170848 4.76304 0.512545 3.97611C0.854241 3.18917 1.32019 2.5006 1.91039 1.91039C2.5006 1.32019 3.18917 0.854241 3.97611 0.512545C4.76304 0.170848 5.60175 0 6.49223 0H19.5078ZM17.8614 5.68459H15.1278C14.5894 5.68459 14.0924 5.77778 13.6368 5.96416C13.1812 6.15054 12.7877 6.39387 12.4564 6.69415C12.125 6.99442 11.861 7.3413 11.6643 7.73477C11.4675 8.12824 11.3692 8.5217 11.3692 8.91517V10.5615H8.94624V13.7921H11.3692V20.3154H14.6308V13.7921H17.0538V10.5615H14.6308V9.75388C14.6308 9.48467 14.7292 9.27758 14.9259 9.13262C15.1227 8.98765 15.2935 8.91517 15.4385 8.91517H17.8614V5.68459Z" fill="white"/>
</svg>
