<svg width="26" height="26" viewBox="0 0 26 26" fill="none" xmlns="http://www.w3.org/2000/svg">
<path d="M17.3955 13.0155C17.3955 12.6635 17.3437 12.2804 17.2401 11.8662H18.5448V18.141C18.5448 18.3067 18.4879 18.4413 18.374 18.5448C18.2601 18.6483 18.1203 18.7001 17.9546 18.7001H7.73477C7.5691 18.7001 7.43449 18.6483 7.33094 18.5448C7.2274 18.4413 7.17563 18.3067 7.17563 18.141V11.8662H8.44922C8.34568 12.2804 8.29391 12.6635 8.29391 13.0155C8.29391 13.6368 8.41298 14.227 8.65114 14.7861C8.88929 15.3453 9.21545 15.8268 9.62963 16.2306C10.0438 16.6344 10.5305 16.9554 11.0896 17.1935C11.6487 17.4317 12.2389 17.5508 12.8602 17.5508C13.4815 17.5508 14.0717 17.4317 14.6308 17.1935C15.19 16.9554 15.6714 16.6344 16.0753 16.2306C16.4791 15.8268 16.8001 15.3453 17.0382 14.7861C17.2764 14.227 17.3955 13.6368 17.3955 13.0155ZM12.8602 15.8423C12.4667 15.8423 12.094 15.7698 11.7419 15.6249C11.3899 15.4799 11.0844 15.278 10.8256 15.0191C10.5667 14.7603 10.3648 14.46 10.2198 14.1183C10.0749 13.7766 10.0024 13.409 10.0024 13.0155C10.0024 12.6221 10.0749 12.2493 10.2198 11.8973C10.3648 11.5452 10.5667 11.2397 10.8256 10.9809C11.0844 10.722 11.3899 10.5201 11.7419 10.3751C12.094 10.2302 12.4667 10.1577 12.8602 10.1577C13.2537 10.1577 13.6213 10.2302 13.963 10.3751C14.3047 10.5201 14.6049 10.722 14.8638 10.9809C15.1227 11.2397 15.3246 11.5452 15.4695 11.8973C15.6145 12.2493 15.687 12.6221 15.687 13.0155C15.687 13.409 15.6145 13.7766 15.4695 14.1183C15.3246 14.46 15.1227 14.7603 14.8638 15.0191C14.6049 15.278 14.3047 15.4799 13.963 15.6249C13.6213 15.7698 13.2537 15.8423 12.8602 15.8423ZM17.9546 7.33094C18.1203 7.33094 18.2601 7.38272 18.374 7.48626C18.4879 7.58981 18.5448 7.72441 18.5448 7.89008V9.59857C18.5448 9.76424 18.4879 9.89885 18.374 10.0024C18.2601 10.1059 18.1203 10.1577 17.9546 10.1577H16.2461C16.0804 10.1577 15.9458 10.1059 15.8423 10.0024C15.7387 9.89885 15.687 9.76424 15.687 9.59857V7.89008C15.687 7.72441 15.7387 7.58981 15.8423 7.48626C15.9458 7.38272 16.0804 7.33094 16.2461 7.33094H17.9546ZM19.4767 0C20.3672 0 21.2111 0.170848 22.0084 0.512545C22.8057 0.854241 23.4994 1.32019 24.0896 1.91039C24.6798 2.5006 25.1458 3.18917 25.4875 3.97611C25.8292 4.76304 26 5.60175 26 6.49223V19.4767C26 20.3672 25.8292 21.2111 25.4875 22.0084C25.1458 22.8057 24.6798 23.4994 24.0896 24.0896C23.4994 24.6798 22.8057 25.1458 22.0084 25.4875C21.2111 25.8292 20.3672 26 19.4767 26H6.49223C5.60175 26 4.76304 25.8292 3.97611 25.4875C3.18917 25.1458 2.5006 24.6798 1.91039 24.0896C1.32019 23.4994 0.854241 22.8057 0.512545 22.0084C0.170848 21.2111 0 20.3672 0 19.4767V6.49223C0 5.60175 0.170848 4.76304 0.512545 3.97611C0.854241 3.18917 1.32019 2.5006 1.91039 1.91039C2.5006 1.32019 3.18917 0.854241 3.97611 0.512545C4.76304 0.170848 5.60175 0 6.49223 0H19.4767ZM20.2533 7.33094C20.2533 6.85464 20.0876 6.45082 19.7563 6.11947C19.4249 5.78813 19.0211 5.62246 18.5448 5.62246H7.17563C6.69932 5.62246 6.2955 5.78813 5.96416 6.11947C5.63282 6.45082 5.46714 6.85464 5.46714 7.33094V18.7001C5.46714 19.1764 5.63282 19.5802 5.96416 19.9116C6.2955 20.2429 6.69932 20.4086 7.17563 20.4086H18.5448C19.0211 20.4086 19.4249 20.2429 19.7563 19.9116C20.0876 19.5802 20.2533 19.1764 20.2533 18.7001V7.33094Z" fill="white"/>
</svg>
