<svg width="26" height="26" viewBox="0 0 26 26" fill="none" xmlns="http://www.w3.org/2000/svg">
<path d="M19.5078 0C20.3982 0 21.237 0.170848 22.0239 0.512545C22.8108 0.854241 23.4994 1.32019 24.0896 1.91039C24.6798 2.5006 25.1458 3.18917 25.4875 3.97611C25.8292 4.76304 26 5.60175 26 6.49223V19.4767C26 20.3672 25.8292 21.2111 25.4875 22.0084C25.1458 22.8057 24.6798 23.4994 24.0896 24.0896C23.4994 24.6798 22.8108 25.1458 22.0239 25.4875C21.237 25.8292 20.3982 26 19.5078 26H6.49223C5.60175 26 4.76304 25.8292 3.97611 25.4875C3.18917 25.1458 2.5006 24.6798 1.91039 24.0896C1.32019 23.4994 0.854241 22.8057 0.512545 22.0084C0.170848 21.2111 0 20.3672 0 19.4767V6.49223C0 5.60175 0.170848 4.76304 0.512545 3.97611C0.854241 3.18917 1.32019 2.5006 1.91039 1.91039C2.5006 1.32019 3.18917 0.854241 3.97611 0.512545C4.76304 0.170848 5.60175 0 6.49223 0H19.5078ZM8.94624 9.75388H5.68459V20.3154H8.94624V9.75388ZM7.33094 8.91517C7.76583 8.91517 8.14377 8.75986 8.46476 8.44922C8.78574 8.13859 8.94624 7.75548 8.94624 7.29988C8.94624 6.84429 8.78574 6.46117 8.46476 6.15054C8.14377 5.8399 7.76583 5.68459 7.33094 5.68459C6.87535 5.68459 6.48706 5.8399 6.16607 6.15054C5.84508 6.46117 5.68459 6.84429 5.68459 7.29988C5.68459 7.75548 5.84508 8.13859 6.16607 8.44922C6.48706 8.75986 6.87535 8.91517 7.33094 8.91517ZM20.3154 14.1959C20.3154 13.4504 20.1083 12.7204 19.6941 12.006C19.28 11.2915 18.7415 10.7479 18.0789 10.3751C17.4783 10.0438 16.7794 9.86778 15.9821 9.84707C15.1848 9.82636 14.4652 9.96097 13.8232 10.2509V9.75388H10.5615V20.3154H13.8232V13.8542L15.1589 13.2019C15.3246 13.1191 15.5524 13.0777 15.8423 13.0777C16.1322 13.0777 16.3497 13.1294 16.4946 13.233C16.6189 13.2951 16.7431 13.4297 16.8674 13.6368C16.9916 13.8439 17.0538 14.0303 17.0538 14.1959V20.3154H20.3154V14.1959Z" fill="white"/>
</svg>
