<svg width="26" height="26" viewBox="0 0 26 26" fill="none" xmlns="http://www.w3.org/2000/svg">
<path d="M19.5078 0C20.3982 0 21.237 0.170848 22.0239 0.512545C22.8108 0.854241 23.4994 1.32019 24.0896 1.91039C24.6798 2.5006 25.1458 3.18917 25.4875 3.97611C25.8292 4.76304 26 5.60175 26 6.49223V19.4767C26 20.3672 25.8292 21.2111 25.4875 22.0084C25.1458 22.8057 24.6798 23.4994 24.0896 24.0896C23.4994 24.6798 22.8108 25.1458 22.0239 25.4875C21.237 25.8292 20.3982 26 19.5078 26H6.49223C5.60175 26 4.76304 25.8292 3.97611 25.4875C3.18917 25.1458 2.5006 24.6798 1.91039 24.0896C1.32019 23.4994 0.854241 22.8057 0.512545 22.0084C0.170848 21.2111 0 20.3672 0 19.4767V6.49223C0 5.60175 0.170848 4.76304 0.512545 3.97611C0.854241 3.18917 1.32019 2.5006 1.91039 1.91039C2.5006 1.32019 3.18917 0.854241 3.97611 0.512545C4.76304 0.170848 5.60175 0 6.49223 0H19.5078ZM19.1971 9.78495C19.7977 9.37077 20.3258 8.83234 20.7814 8.16965C20.4914 8.29391 20.1963 8.39745 19.8961 8.48029C19.5958 8.56312 19.2903 8.62525 18.9797 8.66667C19.6631 8.23178 20.1187 7.64158 20.3465 6.89606C19.7252 7.28953 19.0625 7.54839 18.3584 7.67264C17.7372 7.00996 16.9606 6.67861 16.0287 6.67861C15.5938 6.67861 15.1848 6.76145 14.8017 6.92712C14.4186 7.09279 14.0872 7.32059 13.8076 7.61051C13.5281 7.90044 13.3055 8.23696 13.1398 8.62007C12.9741 9.00319 12.8913 9.41219 12.8913 9.84707C12.8913 9.97133 12.8965 10.0904 12.9068 10.2043C12.9172 10.3182 12.9327 10.4373 12.9534 10.5615C11.6487 10.4994 10.4373 10.1732 9.319 9.58303C8.20072 8.99283 7.24811 8.22143 6.46117 7.26882C6.17125 7.74512 6.02628 8.2732 6.02628 8.85305C6.02628 9.39148 6.15571 9.88849 6.41458 10.3441C6.67344 10.7997 7.00996 11.1724 7.42413 11.4624C7.17563 11.4624 6.9323 11.4261 6.69415 11.3536C6.45599 11.2812 6.22302 11.1932 5.99522 11.0896V11.1207C5.99522 11.8869 6.23855 12.5548 6.72521 13.1243C7.21187 13.6937 7.8176 14.0613 8.54241 14.227C8.25249 14.2891 7.97292 14.3202 7.7037 14.3202H7.4086L7.1135 14.2581C7.32059 14.9 7.68817 15.4229 8.21625 15.8268C8.74432 16.2306 9.36041 16.4429 10.0645 16.4636C9.52609 16.8777 8.92035 17.2091 8.24731 17.4576C7.57427 17.7061 6.87535 17.8303 6.15054 17.8303C6.00558 17.8303 5.87097 17.8252 5.74671 17.8148C5.62246 17.8045 5.49821 17.7889 5.37395 17.7682C6.07806 18.2238 6.83911 18.5759 7.65711 18.8244C8.47511 19.0729 9.32935 19.1971 10.2198 19.1971C11.6695 19.1971 12.9534 18.9227 14.0717 18.374C15.19 17.8252 16.127 17.1211 16.8829 16.2616C17.6388 15.4022 18.2135 14.4393 18.6069 13.3728C19.0004 12.3063 19.1971 11.2449 19.1971 10.1888V9.78495Z" fill="white"/>
</svg>
