<svg width="26" height="26" viewBox="0 0 26 26" fill="none" xmlns="http://www.w3.org/2000/svg">
<path d="M19.5078 0C20.3982 0 21.237 0.170848 22.0239 0.512545C22.8108 0.854241 23.4994 1.32019 24.0896 1.91039C24.6798 2.5006 25.1458 3.18917 25.4875 3.97611C25.8292 4.76304 26 5.60175 26 6.49223V19.4767C26 20.3672 25.8292 21.2111 25.4875 22.0084C25.1458 22.8057 24.6798 23.4994 24.0896 24.0896C23.4994 24.6798 22.8108 25.1458 22.0239 25.4875C21.237 25.8292 20.3982 26 19.5078 26H6.49223C5.60175 26 4.76304 25.8292 3.97611 25.4875C3.18917 25.1458 2.5006 24.6798 1.91039 24.0896C1.32019 23.4994 0.854241 22.8057 0.512545 22.0084C0.170848 21.2111 0 20.3672 0 19.4767V6.49223C0 5.60175 0.170848 4.76304 0.512545 3.97611C0.854241 3.18917 1.32019 2.5006 1.91039 1.91039C2.5006 1.32019 3.18917 0.854241 3.97611 0.512545C4.76304 0.170848 5.60175 0 6.49223 0H19.5078ZM11.0275 11.8041C11.0275 12.2804 11.1828 12.6531 11.4934 12.9223C11.7834 13.1916 12.1975 13.3262 12.736 13.3262C13.2951 13.3262 13.7196 13.1916 14.0096 12.9223C14.3202 12.6738 14.4755 12.3011 14.4755 11.8041V8.94624C14.4755 8.55277 14.3202 8.21107 14.0096 7.92115C13.7196 7.65193 13.3158 7.51732 12.7981 7.51732C12.2597 7.51732 11.8351 7.64158 11.5245 7.89008C11.1932 8.13859 11.0275 8.48029 11.0275 8.91517V11.8041ZM9.35006 13.3262H5.68459V14.3202H6.92712V20.1601H8.10753V14.3202H9.35006V13.3262ZM9.38112 10.0956L10.9343 5.68459H9.5675L8.75986 8.69773H8.66667L7.79689 5.68459H6.46117L8.0454 10.2198V13.2019H9.38112V10.0956ZM12.8292 15.1278H11.773V18.9486C11.7316 19.0108 11.6798 19.0625 11.6177 19.1039L11.4313 19.2282C11.307 19.2903 11.2139 19.3214 11.1517 19.3214C11.0482 19.3214 10.9757 19.3007 10.9343 19.2593C10.8929 19.2178 10.8722 19.1247 10.8722 18.9797V15.1278H9.81601V19.3524C9.81601 19.6424 9.87814 19.8598 10.0024 20.0048C10.1266 20.1705 10.3027 20.2533 10.5305 20.2533C10.7168 20.2533 10.9239 20.1912 11.1517 20.0669C11.3381 19.9841 11.5452 19.8288 11.773 19.601V20.1601H12.8292V15.1278ZM16.6499 16.3393C16.6499 15.9251 16.5568 15.6041 16.3704 15.3763C16.2254 15.1693 15.9769 15.0657 15.6249 15.0657C15.4385 15.0657 15.2728 15.1071 15.1278 15.19C14.9622 15.2521 14.8172 15.366 14.693 15.5317V13.3262H13.6057V20.1601H14.693V19.7873C14.7551 19.8702 14.8224 19.9375 14.8949 19.9892C14.9673 20.041 15.045 20.0876 15.1278 20.129C15.2728 20.1912 15.4592 20.2222 15.687 20.2222C15.9976 20.2222 16.2358 20.129 16.4014 19.9427C16.5671 19.7356 16.6499 19.4663 16.6499 19.135V16.3393ZM16.2772 13.264C16.5257 13.264 16.7535 13.2123 16.9606 13.1087C17.1677 13.0052 17.3955 12.8292 17.644 12.5806V13.2019H18.8244V7.64158H17.644V11.8662C17.5611 11.9697 17.4369 12.0733 17.2712 12.1768C17.147 12.2389 17.0434 12.27 16.9606 12.27C16.8156 12.27 16.7328 12.2389 16.7121 12.1768C16.6499 12.1147 16.6189 12.0215 16.6189 11.8973V7.64158H15.4385V12.3011C15.4385 12.6324 15.511 12.8706 15.6559 13.0155C15.7595 13.1812 15.9665 13.264 16.2772 13.264ZM20.3154 16.4946C20.3154 15.9976 20.1808 15.6249 19.9116 15.3763C19.6631 15.1278 19.2903 15.0036 18.7933 15.0036C18.317 15.0036 17.9339 15.1382 17.644 15.4074C17.354 15.6973 17.2091 16.0597 17.2091 16.4946V18.7312C17.2091 19.2282 17.3437 19.6113 17.6129 19.8805C17.9028 20.1705 18.2756 20.3154 18.7312 20.3154C19.2489 20.3154 19.6424 20.1808 19.9116 19.9116C20.1808 19.6631 20.3154 19.2696 20.3154 18.7312V18.4827H19.2282V18.7001C19.2282 19.0108 19.1971 19.2075 19.135 19.2903C19.0522 19.3732 18.9279 19.4146 18.7622 19.4146C18.5552 19.4146 18.4309 19.3628 18.3895 19.2593C18.3274 19.1764 18.2963 18.99 18.2963 18.7001V17.7682H20.3154V16.4946ZM18.7622 15.8734C18.9279 15.8734 19.0418 15.9251 19.1039 16.0287C19.1868 16.1115 19.2282 16.2565 19.2282 16.4636V16.9916H18.2963V16.4636C18.2963 16.2772 18.3274 16.1322 18.3895 16.0287C18.493 15.9251 18.6173 15.8734 18.7622 15.8734ZM15.1278 15.8734C15.2728 15.8734 15.3763 15.9148 15.4385 15.9976C15.5213 16.0804 15.5627 16.2047 15.5627 16.3704V18.9797C15.5627 19.1454 15.5317 19.2593 15.4695 19.3214C15.4074 19.4042 15.3142 19.4456 15.19 19.4456C15.1071 19.4456 15.0243 19.4249 14.9415 19.3835C14.8379 19.3421 14.7551 19.28 14.693 19.1971V16.0597C14.7758 15.9769 14.8483 15.9251 14.9104 15.9044C14.9518 15.8837 15.0243 15.8734 15.1278 15.8734ZM12.736 12.3632C12.5703 12.3632 12.4564 12.3218 12.3943 12.2389C12.2907 12.1768 12.2389 12.0629 12.2389 11.8973V8.88411C12.2389 8.78057 12.2907 8.67702 12.3943 8.57348C12.4771 8.51135 12.591 8.48029 12.736 8.48029C12.8809 8.48029 13.0155 8.51135 13.1398 8.57348C13.2226 8.65631 13.264 8.75986 13.264 8.88411V11.8973C13.264 12.0629 13.2226 12.1768 13.1398 12.2389C13.0569 12.3218 12.9223 12.3632 12.736 12.3632Z" fill="white"/>
</svg>
