<svg width="87" height="85" viewBox="0 0 87 85" fill="none" xmlns="http://www.w3.org/2000/svg">
<path fill-rule="evenodd" clip-rule="evenodd" d="M32.7256 7.73504V21.5401C32.7256 22.4256 32.0127 23.1448 31.1348 23.1448H27.9521C27.0742 23.1448 26.3614 22.4256 26.3614 21.5401V7.73504C26.3614 6.8488 27.0742 6.12964 27.9521 6.12964H31.1348C32.0127 6.12964 32.7256 6.8488 32.7256 7.73504Z" fill="#ED2F59"/>
<path fill-rule="evenodd" clip-rule="evenodd" d="M66.2208 30.336V66.1828C66.2208 68.2388 64.5662 69.9082 62.528 69.9082H27.6226C25.5845 69.9082 23.9298 68.2388 23.9298 66.1828V30.336C23.9298 28.28 25.5845 26.6106 27.6226 26.6106H62.528C64.5662 26.6106 66.2208 28.28 66.2208 30.336ZM53.6829 44.0839C53.6829 41.6872 51.7548 39.7419 49.3795 39.7419H40.7712C38.3958 39.7419 36.4677 41.6872 36.4677 44.0839V63.8766C36.4677 66.2726 38.3958 68.2185 40.7712 68.2185H49.3795C51.7548 68.2185 53.6829 66.2726 53.6829 63.8766V44.0839Z" fill="#840F29"/>
<path fill-rule="evenodd" clip-rule="evenodd" d="M26.3904 65.0478C26.3904 65.0478 38.8961 65.9755 49.0183 66.7264C57.226 67.3353 65.4015 65.1765 72.2608 60.5892C76.3906 57.8274 80.1543 55.3102 80.1543 55.3102C80.1543 55.3102 83.6832 53.0067 85.7589 56.1479C87.8348 59.2891 86.4855 61.6678 83.787 63.9862C82.1734 65.3723 75.6985 71.2082 70.7528 75.6767C66.8229 79.1974 61.9465 81.4634 56.7402 82.1884C51.7759 82.8804 45.3922 83.7694 40.2188 84.4896C34.1393 85.3363 27.9465 84.6495 22.1943 82.4909C16.2108 80.2455 9.36212 77.6755 9.36212 77.6755" fill="#D5133E"/>
<path fill-rule="evenodd" clip-rule="evenodd" d="M9.36212 50.2844C9.36212 50.2844 17.2027 48.5845 25.2486 53.6352C29.9193 56.5669 36.8297 57.7187 42.2494 58.3469C49.4882 59.1859 56.4528 58.4545 56.0747 67.0375C55.8088 73.0715 37.5756 68.4422 21.7355 69.9078C16.6872 70.375 13.8529 77.1133 9.36212 77.6755V50.2844Z" fill="#ED2F59"/>
<path fill-rule="evenodd" clip-rule="evenodd" d="M43.2805 1.65884C44.2962 0.720164 45.8544 0.720164 46.8701 1.65884C51.955 6.35962 66.5933 19.8942 74.3945 27.1065C75.2018 27.8534 75.4722 29.0236 75.0753 30.053C74.6784 31.0831 73.6953 31.7615 72.6001 31.7615C59.4404 31.7615 30.7102 31.7615 17.5505 31.7615C16.4553 31.7615 15.4722 31.0831 15.0753 30.053C14.6784 29.0236 14.9488 27.8534 15.7562 27.1065C23.5573 19.8942 38.1964 6.35962 43.2805 1.65884Z" fill="#D5133E"/>
<path fill-rule="evenodd" clip-rule="evenodd" d="M9.36231 48.5957V78.4521C9.36231 79.7554 8.31353 80.8134 7.02161 80.8134H2.34022C1.04896 80.8134 0.000190735 79.7554 0.000190735 78.4521V48.5957C0.000190735 47.2924 1.04896 46.2344 2.34022 46.2344H7.02161C8.31353 46.2344 9.36231 47.2924 9.36231 48.5957Z" fill="#ED2F59"/>
</svg>
