<svg width="94" height="79" viewBox="0 0 94 79" fill="none" xmlns="http://www.w3.org/2000/svg">
<path fill-rule="evenodd" clip-rule="evenodd" d="M23.2644 79.0001H8.47815V27.5991H84.58V79.0001H38.7742V48.7002H23.2644V79.0001ZM75.3856 48.7002H48.6905V66.8421H75.3856V48.7002Z" fill="#ED2F59"/>
<path fill-rule="evenodd" clip-rule="evenodd" d="M77.6741 0L93.0552 30.1946H0.00115967L15.3822 0H77.6741Z" fill="#D5133E"/>
<path fill-rule="evenodd" clip-rule="evenodd" d="M57.5843 0.000488281H67.3343L77.5443 30.1958H62.0356L57.5843 0.000488281Z" fill="#840F29"/>
<path fill-rule="evenodd" clip-rule="evenodd" d="M36.0859 0.000488281H46.5266V30.1958H31.0178L36.0859 0.000488281Z" fill="#840F29"/>
<path fill-rule="evenodd" clip-rule="evenodd" d="M15.5088 30.1958H6.29425e-05L15.3811 0.000488281H26.3356L15.5088 30.1958Z" fill="#840F29"/>
<path fill-rule="evenodd" clip-rule="evenodd" d="M15.508 30.1956C15.508 34.4753 12.034 37.9494 7.75422 37.9494C3.47445 37.9494 0.000366211 34.4753 0.000366211 30.1956H15.508Z" fill="#D5133E"/>
<path fill-rule="evenodd" clip-rule="evenodd" d="M31.0167 30.1956C31.0167 34.4753 27.5427 37.9494 23.2629 37.9494C18.9832 37.9494 15.5091 34.4753 15.5091 30.1956H31.0167Z" fill="#840F29"/>
<path fill-rule="evenodd" clip-rule="evenodd" d="M46.5255 30.1956C46.5255 34.4753 43.0514 37.9494 38.7717 37.9494C34.4919 37.9494 31.0178 34.4753 31.0178 30.1956H46.5255Z" fill="#D5133E"/>
<path fill-rule="evenodd" clip-rule="evenodd" d="M62.0346 30.1956C62.0346 34.4753 58.5606 37.9494 54.2808 37.9494C50.0011 37.9494 46.527 34.4753 46.527 30.1956H62.0346Z" fill="#840F29"/>
<path fill-rule="evenodd" clip-rule="evenodd" d="M77.5436 30.1956C77.5436 34.4753 74.0696 37.9494 69.7898 37.9494C65.51 37.9494 62.0359 34.4753 62.0359 30.1956H77.5436Z" fill="#D5133E"/>
<path fill-rule="evenodd" clip-rule="evenodd" d="M93.0528 30.1956C93.0528 34.4753 89.5788 37.9494 85.299 37.9494C81.0193 37.9494 77.5452 34.4753 77.5452 30.1956H93.0528Z" fill="#840F29"/>
</svg>
