<svg width="81" height="81" viewBox="0 0 81 81" fill="none" xmlns="http://www.w3.org/2000/svg">
<mask id="mask0_36_29" style="mask-type:alpha" maskUnits="userSpaceOnUse" x="0" y="0" width="81" height="81">
<circle cx="40.5" cy="40.5" r="40.5" fill="#D9D9D9"/>
</mask>
<g mask="url(#mask0_36_29)">
<path d="M28.2924 65.446L15.9766 72.0594C15.2539 72.4474 14.6043 72.9242 14 73.4441C21.1805 79.4043 30.4497 83 40.5771 83C50.6298 83 59.8398 79.4579 67 73.579C66.3396 73.03 65.6231 72.5363 64.8287 72.1468L51.6406 65.6561C49.9366 64.8173 48.8603 63.103 48.8603 61.2277V56.1339C49.2311 55.7183 49.6547 55.1847 50.108 54.5545C51.9054 52.0551 53.2652 49.3058 54.2075 46.4215C55.8991 45.9078 57.1451 44.3699 57.1451 42.5421V37.1048C57.1451 35.9088 56.6047 34.84 55.7651 34.0917V26.2317C55.7651 26.2317 57.4053 14 40.5787 14C23.752 14 25.3922 26.2317 25.3922 26.2317V34.0917C24.5511 34.84 24.0122 35.9088 24.0122 37.1048V42.5421C24.0122 43.9743 24.7769 45.2347 25.9218 45.963C27.3018 51.8772 30.9154 56.1339 30.9154 56.1339V61.102C30.9138 62.9114 29.9076 64.5781 28.2924 65.446Z" fill="#A7AAAD"/>
</g>
</svg>
